<svg xmlns="http://www.w3.org/2000/svg" viewBox="0 0 30 30">
    <path
        d="M 15 3 C 10.398 3 5.6113281 4.0390625 5.6113281 4.0390625 C 4.6933281 4.2200625 4 5.029 4 6 L 4 12 C 4 22.398 14.041016 26.744141 14.041016 26.744141 C 14.327016 26.901141 14.651 27 15 27 C 15.349 27 15.672984 26.901141 15.958984 26.744141 C 15.958984 26.744141 26 22.398 26 12 L 26 6 C 26 5.029 25.306672 4.2200625 24.388672 4.0390625 C 24.388672 4.0390625 19.602 3 15 3 z M 15 5 C 19.337 5 23.918844 5.9841406 23.964844 5.9941406 L 24 12 C 24 13.074013 23.871289 14.070976 23.654297 15 L 15 15 L 15 24.988281 L 14.994141 24.992188 L 14.910156 24.947266 L 14.835938 24.908203 C 14.522811 24.770991 7.9304255 21.785032 6.3457031 15 L 15 15 L 15 5 z"/>
</svg>
