<svg xmlns="http://www.w3.org/2000/svg" viewBox="0 0 30 30">
    <path
        d="M 8 8 C 3.6102416 8 0 11.595515 0 16 C 0 20.400585 3.599415 24 8 24 C 10.646 24 12.420344 22.745203 13.777344 21.033203 C 13.147344 20.063203 12.616672 19.057234 12.138672 18.115234 C 10.996672 19.940234 9.828 21 8 21 C 5.220585 21 3 18.779415 3 16 C 3 13.224485 5.2377584 11 8 11 C 9.4265669 11 10.267624 11.520682 11.15625 12.525391 C 12.044876 13.530099 12.834942 15.048526 13.652344 16.673828 C 14.469745 18.29913 15.315394 20.031983 16.585938 21.464844 C 17.85648 22.897705 19.696851 24 22 24 C 26.362802 24 30 20.414234 30 16 C 30 11.599415 26.400585 8 22 8 C 19.35 8 17.576703 9.2652813 16.220703 10.988281 C 16.849703 11.961281 17.379422 12.969109 17.857422 13.912109 C 19.003422 12.069109 20.172 11 22 11 C 24.779415 11 27 13.220585 27 16 C 27 18.765766 24.719198 21 22 21 C 20.566649 21 19.72091 20.477295 18.830078 19.472656 C 17.939247 18.468017 17.14913 16.95087 16.332031 15.326172 C 15.514933 13.701474 14.671546 11.969901 13.404297 10.537109 C 12.137048 9.1043186 10.298933 8 8 8 z"/>
</svg>
