<svg fill="#1875F0" xmlns="http://www.w3.org/2000/svg" viewBox="0 0 24 24">
    <path d="M21,7.8c-0.7-1.4-1.6-2.6-2.9-3.6c0,0.7,0.1,2.1,0.1,2.1s0.1,0.1,0.1,0.1c1.3,1.8,1.7,3.8,1.3,5.9c-0.9,4.3-5,6.9-9.3,5.8c-3.7-0.9-6.2-4.8-5.5-8.5c0.6-3,2.3-5,5.2-6l0.1,0l0.1-0.1c0.3-0.5,0.7-1,1-1.5c-4.3,0.2-8.7,3.7-9.2,9c-0.5,5.1,3,9.7,7.9,10.7c5.1,1,10-2,11.5-6.8C22.2,12.5,22.1,10.1,21,7.8z M8.8,11c0.2,2.1,2,3.5,4.1,3.2c2-0.2,3.5-2.2,3.1-4.2c-0.3-1.6-0.6-3.1-0.9-4.7c-0.1-0.6-0.3-1.3-0.4-2c-0.1,0-0.1,0.1-0.1,0.1c-0.7,0.7-1.4,1.4-2.1,2c-0.8,0.8-1.7,1.7-2.5,2.5C9,8.8,8.6,9.8,8.8,11z"/>
</svg>
