<svg version="1.1" id="Layer_1" xmlns="http://www.w3.org/2000/svg" viewBox="0 0 34.2 34.2" style="enable-background:new 0 0 34.2 34.2;" xml:space="preserve">
<style type="text/css">
	.st0{fill:#2597FF;}
</style>
    <path class="st0" d="M33.5,21.2l-0.3-0.5c-0.7-1.1-2.4-3.8-2.9-4.7c0.2-0.9-0.2-1.6-0.6-2.1c-1.1-1.2-2.9-2.9-5.5-4.1
	c-0.9-2.9-2.9-3.4-4.7-3.8c-1.2-0.3-1.8-0.5-3.1-1.5c-1.3-1-2.8-0.8-3.1-0.8c-0.3,0,1.6,0.4,1.7,2.1s-0.6,3.2,2.3,5.3
	c-0.9,0.4-3.3,2-4.4,3c-1,1-3.1,2.3-6.4,3.2c-0.2,0.1-0.4,0.2-0.5,0.4c-0.1,0.2-0.1,0.4,0,0.6c0.2,0.4,0.9,0.8,1.6,1.1
	c-1.7,0.7-4.8,1-6.8,1c-0.3,0-0.5,0.2-0.7,0.4C0,21.1,0,21.4,0.2,21.6C2,23.8,5,25.4,6.6,26.2c-0.5,0.3-1,0.6-1.6,0.8
	c-0.3,0.1-0.5,0.3-0.5,0.6c0,0.3,0.1,0.6,0.4,0.7c6.4,3,5.7,3.4,8.9-0.4s5.6-0.9,7.9-2.2c2.2-1.3,5.8-1.6,7.4-0.8
	c2,0.9,4.5-0.7,5-1.6C34.4,22.6,34.2,22.2,33.5,21.2z M24.6,16.7c-0.7-0.6-0.8-1.7-0.2-2.4l2.6,2.2C26.3,17.2,25.3,17.3,24.6,16.7z"
    />
</svg>
