<svg xmlns="http://www.w3.org/2000/svg" viewBox="0 0 30 30">
    <path
        d="M 15 3 C 8.373 3 3 8.373 3 15 C 3 21.627 8.373 27 15 27 C 21.627 27 27 21.627 27 15 C 27 8.373 21.627 3 15 3 z M 15 9 C 17.206 9 19 10.794 19 13 L 19 14 C 19.552 14 20 14.448 20 15 L 20 19 C 20 19.552 19.552 20 19 20 L 11 20 C 10.448 20 10 19.552 10 19 L 10 15 C 10 14.448 10.448 14 11 14 L 11 13 C 11 10.794 12.794 9 15 9 z M 15 11 C 13.897 11 13 11.897 13 13 L 13 14 L 17 14 L 17 13 C 17 11.897 16.103 11 15 11 z"/>
</svg>
