<svg xmlns="http://www.w3.org/2000/svg" viewBox="0 0 30 30">
    <path
        d="M27.674,17.61l-4.288-3.915l2.164-5.387c0.134-0.334,0.079-0.715-0.146-0.996s-0.582-0.424-0.939-0.364l-5.733,0.911	L15.87,2.808c-0.355-0.627-1.385-0.627-1.74,0l-2.862,5.052L5.534,6.948C5.178,6.89,4.82,7.031,4.595,7.312s-0.28,0.662-0.146,0.996	l2.164,5.387L2.326,17.61c-0.266,0.242-0.381,0.609-0.301,0.961c0.081,0.351,0.343,0.632,0.688,0.735l5.562,1.666l0.388,5.793	c0.024,0.359,0.239,0.679,0.563,0.835c0.326,0.157,0.709,0.126,1.004-0.08L15,24.211l4.771,3.31c0.17,0.118,0.37,0.179,0.57,0.179	c0.148,0,0.296-0.032,0.434-0.099c0.324-0.156,0.54-0.476,0.563-0.835l0.388-5.793l5.562-1.666c0.345-0.104,0.607-0.385,0.688-0.735	C28.055,18.22,27.94,17.853,27.674,17.61z"/>
</svg>
