<svg xmlns="http://www.w3.org/2000/svg" viewBox="0 0 30 30">
    <path
        d="M 15 2 A 1.0001 1.0001 0 0 0 14.640625 2.0722656 C 11.513966 2.2692722 9 4.8256358 9 8 L 9 11.304688 C 7.1627428 12.952391 6 15.337544 6 18 C 6 22.971 10.029 27 15 27 C 19.971 27 24 22.971 24 18 C 24 13.029 19.971 9 15 9 C 13.561514 9 12.205919 9.3453537 11 9.9453125 L 11 8 C 11 5.7796254 12.779625 4 15 4 C 16.70025 4 18.138894 5.0518378 18.722656 6.5332031 A 1.000123 1.000123 0 1 0 20.583984 5.8007812 C 19.738116 3.6542896 17.676043 2.1514102 15.267578 2.0410156 A 1.0001 1.0001 0 0 0 15 2 z M 15 16 C 16.105 16 17 16.895 17 18 C 17 18.738 16.595 19.375656 16 19.722656 L 16 21 C 16 21.552 15.552 22 15 22 C 14.448 22 14 21.552 14 21 L 14 19.722656 C 13.405 19.376656 13 18.739 13 18 C 13 16.895 13.895 16 15 16 z"/>
</svg>
