<svg xmlns="http://www.w3.org/2000/svg" viewBox="0 0 30 30">
    <path
        d="M 7 2 C 5.895 2 5 2.895 5 4 L 5 18 C 5 19.105 5.895 20 7 20 L 23 20 C 24.105 20 25 19.105 25 18 L 25 4 C 25 2.895 24.105 2 23 2 L 7 2 z M 16.5 6 C 18.433 6 20 7.567 20 9.5 C 20 9.727 19.974594 9.9471094 19.933594 10.162109 C 21.130594 10.556109 22 11.671 22 13 C 22 14.657 20.657 16 19 16 L 11 16 C 9.343 16 8 14.657 8 13 C 8 11.684 8.8532031 10.577828 10.033203 10.173828 C 10.194203 8.9488281 11.231 8 12.5 8 C 12.773 8 13.030391 8.0547656 13.275391 8.1347656 C 13.807391 6.8797656 15.051 6 16.5 6 z M 5 21.443359 L 5 26 C 5 27.105 5.895 28 7 28 L 23 28 C 24.105 28 25 27.105 25 26 L 25 21.443359 C 24.409 21.787359 23.732 22 23 22 L 7 22 C 6.268 22 5.591 21.787359 5 21.443359 z M 22 24 C 22.552 24 23 24.448 23 25 C 23 25.552 22.552 26 22 26 C 21.448 26 21 25.552 21 25 C 21 24.448 21.448 24 22 24 z"/>
</svg>
