<svg xmlns="http://www.w3.org/2000/svg" viewBox="0 0 30 30">
    <path
        d="M24.819,10.933L24.819,10.933c0.69-3.422-2.33-6.442-5.752-5.752c-1.932-2.908-6.203-2.908-8.134,0 c-3.422-0.69-6.442,2.33-5.752,5.752h0c-2.908,1.932-2.908,6.203,0,8.134h0c-0.69,3.422,2.33,6.442,5.752,5.752 c1.932,2.908,6.203,2.908,8.134,0c3.422,0.69,6.442-2.33,5.752-5.752h0C27.727,17.135,27.727,12.865,24.819,10.933z M21.707,11.707 l-7.56,7.56c-0.188,0.188-0.442,0.293-0.707,0.293s-0.52-0.105-0.707-0.293L9.28,15.814c-0.391-0.391-0.391-1.023,0-1.414 c0.391-0.391,1.023-0.391,1.414,0l2.746,2.746l6.853-6.853c0.391-0.391,1.023-0.391,1.414,0 C22.098,10.684,22.098,11.316,21.707,11.707z"/>
</svg>
